<svg width="16" height="15" viewBox="0 0 16 15" fill="none" xmlns="http://www.w3.org/2000/svg">
<g clip-path="url(#clip0_9991_27)">
<path opacity="0.4" d="M9.33317 13.4482V10.8807C9.33317 10.7667 9.28635 10.6574 9.203 10.5768C9.11965 10.4962 9.0066 10.4509 8.88873 10.4509H7.11095C6.99307 10.4509 6.88003 10.4962 6.79668 10.5768C6.71333 10.6574 6.6665 10.7667 6.6665 10.8807V13.4514C6.66651 13.5651 6.61998 13.674 6.53712 13.7546C6.45425 13.8351 6.34177 13.8806 6.22428 13.8812L3.11095 13.889C2.99307 13.889 2.88003 13.8437 2.79668 13.7631C2.71333 13.6825 2.6665 13.5732 2.6665 13.4592V9.05579L7.78845 4.97709C7.84864 4.93017 7.92363 4.90459 8.00095 4.90459C8.07826 4.90459 8.15325 4.93017 8.21345 4.97709L13.3332 9.05418V13.4592C13.3332 13.5732 13.2863 13.6825 13.203 13.7631C13.1196 13.8437 13.0066 13.889 12.8887 13.889L9.77761 13.8807C9.71901 13.8807 9.66099 13.8695 9.60689 13.8477C9.55278 13.8259 9.50367 13.794 9.46236 13.7538C9.42105 13.7137 9.38837 13.666 9.3662 13.6135C9.34403 13.5611 9.3328 13.5049 9.33317 13.4482Z" fill="#213F7D"/>
<path d="M15.9255 8.2041L15.2172 9.03676C15.1894 9.06949 15.1552 9.09661 15.1166 9.11656C15.0779 9.13651 15.0356 9.14889 14.992 9.15301C14.9484 9.15712 14.9044 9.15289 14.8625 9.14055C14.8206 9.1282 14.7816 9.108 14.7478 9.08108L8.21362 3.87586C8.15342 3.82894 8.07843 3.80336 8.00112 3.80336C7.9238 3.80336 7.84882 3.82894 7.78862 3.87586L1.25475 9.08108C1.18646 9.13536 1.09866 9.16118 1.01068 9.15287C0.922692 9.14456 0.841724 9.10279 0.785587 9.03676L0.0772555 8.2041C0.020991 8.13819 -0.00590471 8.05338 0.0024817 7.96831C0.0108681 7.88323 0.0538501 7.80487 0.121978 7.75043L7.15251 2.15117C7.39117 1.96127 7.69065 1.85744 7.99973 1.85744C8.30881 1.85744 8.60829 1.96127 8.84695 2.15117L11.3333 4.12835V2.17803C11.3333 2.09255 11.3684 2.01057 11.431 1.95012C11.4935 1.88967 11.5783 1.85571 11.6667 1.85571H13.2222C13.3106 1.85571 13.3954 1.88967 13.4579 1.95012C13.5204 2.01057 13.5555 2.09255 13.5555 2.17803V5.89843L15.8778 7.74935C15.9119 7.77611 15.9402 7.80912 15.9611 7.84649C15.9819 7.88387 15.995 7.92486 15.9994 7.96712C16.0039 8.00938 15.9996 8.05207 15.9869 8.09274C15.9743 8.13341 15.9534 8.17125 15.9255 8.2041Z" fill="#213F7D"/>
</g>
<defs>
<clipPath id="clip0_9991_27">
<rect width="16" height="13.7524" fill="white" transform="translate(0 0.996185)"/>
</clipPath>
</defs>
</svg>
