<svg width="16" height="16" viewBox="0 0 16 16" fill="none" xmlns="http://www.w3.org/2000/svg">
<path d="M9.77378 6.6696L9.77939 6.66579L9.75958 6.59624C9.716 6.4433 9.56376 6.32759 9.39866 6.34765C9.36742 6.34933 9.29216 6.35924 9.18987 6.38422C9.07373 6.41259 8.9173 6.46167 8.7405 6.54487C8.40518 6.70267 7.99684 6.98314 7.65235 7.47622C7.38737 7.30782 6.97301 7.15784 6.42628 7.2939C6.29031 7.31876 6.17459 7.43283 6.17095 7.59216C6.08068 8.23011 6.30815 8.84738 6.61275 9.35899C6.91303 9.86335 7.29462 10.2758 7.54636 10.5209C7.56224 10.5581 7.58019 10.5939 7.59518 10.6239L7.59544 10.6244C7.61072 10.6549 7.62146 10.6766 7.62797 10.6922C7.63616 10.863 7.64797 11.0075 7.65983 11.1146C7.66593 11.1697 7.67212 11.2156 7.67797 11.2505C7.68088 11.2679 7.68386 11.2835 7.68691 11.2966C7.68841 11.3031 7.69062 11.3121 7.69387 11.3217C7.7243 11.4852 7.88296 11.5873 8.03086 11.5873H8.07899V11.5881L8.09157 11.5865C8.27293 11.5635 8.41313 11.3849 8.36899 11.1958L8.36828 11.1913L8.36462 11.1666C8.3615 11.1447 8.35712 11.112 8.35222 11.0699C8.34336 10.9937 8.33282 10.8866 8.32497 10.7558C8.56181 10.4972 9.19981 9.75679 9.52841 9.10027L9.52843 9.10028L9.52914 9.0988C9.81859 8.49601 9.87565 7.88277 9.86136 7.41677C9.8542 7.18341 9.82912 6.98591 9.80582 6.84363C9.79417 6.77245 9.78297 6.71513 9.77474 6.67433L9.77378 6.6696ZM6.98156 8.07855C6.9206 8.12214 6.88033 8.17844 6.85847 8.23966C6.83663 8.13848 6.82316 8.03683 6.81984 7.9354C6.9853 7.93501 7.11736 7.97419 7.21892 8.02463C7.14047 8.01588 7.0594 8.03343 6.99006 8.0731L6.98981 8.07265L6.98156 8.07855ZM8.8938 8.78795C8.75704 9.0572 8.55585 9.35207 8.35398 9.6132C8.44328 9.0776 8.62839 8.48304 9.00854 7.96328L9.00854 7.96329L9.00916 7.96241C9.11778 7.81052 9.09942 7.60217 8.93786 7.48665C8.82278 7.40436 8.67529 7.39495 8.56032 7.46549C8.76969 7.28693 8.97651 7.18318 9.13904 7.12276C9.20025 7.494 9.20787 8.15929 8.90212 8.7713L8.8938 8.78795ZM8.00851 8.17268C8.14734 7.90645 8.30776 7.7028 8.47025 7.54698C8.46773 7.55025 8.46524 7.55358 8.4628 7.55697C8.17335 7.94341 7.97535 8.36361 7.84113 8.77622C7.8618 8.57284 7.91443 8.36895 8.00851 8.17268Z" fill="#213F7D" stroke="#213F7D" stroke-width="0.2"/>
<path d="M4.45957 11.84C4.45957 12.0233 4.61622 12.18 4.79957 12.18C4.98292 12.18 5.13957 12.0233 5.13957 11.84V5.75996C5.13957 5.57661 4.98292 5.41996 4.79957 5.41996C4.61622 5.41996 4.45957 5.57661 4.45957 5.75996V11.84Z" fill="#213F7D" stroke="#213F7D" stroke-width="0.2"/>
<path d="M2.85996 11.84C2.85996 12.0233 3.01661 12.18 3.19996 12.18C3.38331 12.18 3.53996 12.0233 3.53996 11.84V5.75996C3.53996 5.57661 3.38331 5.41996 3.19996 5.41996C3.01661 5.41996 2.85996 5.57661 2.85996 5.75996V11.84Z" fill="#213F7D" stroke="#213F7D" stroke-width="0.2"/>
<path d="M10.86 11.84C10.86 12.0233 11.0166 12.18 11.2 12.18C11.3833 12.18 11.54 12.0233 11.54 11.84V5.75996C11.54 5.57661 11.3833 5.41996 11.2 5.41996C11.0166 5.41996 10.86 5.57661 10.86 5.75996V11.84Z" fill="#213F7D" stroke="#213F7D" stroke-width="0.2"/>
<path d="M12.4596 11.84C12.4596 12.0233 12.6162 12.18 12.7996 12.18C12.9829 12.18 13.1396 12.0233 13.1396 11.84V5.75996C13.1396 5.57661 12.9829 5.41996 12.7996 5.41996C12.6162 5.41996 12.4596 5.57661 12.4596 5.75996V11.84Z" fill="#213F7D" stroke="#213F7D" stroke-width="0.2"/>
<path d="M13.5816 5.29997H13.3598H2.63979C2.48624 5.29997 2.34543 5.19237 2.31837 5.04569C2.27529 4.88563 2.35023 4.75011 2.47246 4.66863L2.4766 4.66587L2.47666 4.66598L7.83638 1.46615C7.83642 1.46612 7.83646 1.4661 7.8365 1.46607L7.83666 1.46598L7.88792 1.55184C7.96792 1.50372 8.06418 1.50372 8.12792 1.55184L13.5816 5.29997ZM13.5816 5.29997L13.5364 5.24878C13.6333 5.18881 13.701 5.08325 13.7146 4.97131L13.7154 4.9714V4.95926C13.7154 4.82907 13.6335 4.69696 13.5168 4.64602L8.18327 1.46841L13.5816 5.29997ZM12.1188 4.61997H3.86561L7.9997 2.14837L12.1188 4.61997Z" fill="#213F7D" stroke="#213F7D" stroke-width="0.2"/>
<path d="M2.6399 12.98H13.3599C13.5433 12.98 13.6999 12.8233 13.6999 12.64C13.6999 12.4566 13.5433 12.3 13.3599 12.3H2.6399C2.45655 12.3 2.2999 12.4566 2.2999 12.64C2.2999 12.8233 2.45655 12.98 2.6399 12.98Z" fill="#213F7D" stroke="#213F7D" stroke-width="0.2"/>
<path d="M1.83961 13.78H14.1596C14.343 13.78 14.4996 13.6233 14.4996 13.44C14.4996 13.2566 14.343 13.1 14.1596 13.1H1.83961C1.65626 13.1 1.49961 13.2566 1.49961 13.44C1.49961 13.6233 1.65626 13.78 1.83961 13.78Z" fill="#213F7D" stroke="#213F7D" stroke-width="0.2"/>
<path d="M1.0398 14.5799H14.9598C15.1432 14.5799 15.2998 14.4233 15.2998 14.2399C15.2998 14.0566 15.1432 13.8999 14.9598 13.8999H1.0398C0.856451 13.8999 0.699805 14.0566 0.699805 14.2399C0.699805 14.4233 0.856452 14.5799 1.0398 14.5799Z" fill="#213F7D" stroke="#213F7D" stroke-width="0.2"/>
</svg>
