<svg width="16" height="13" viewBox="0 0 16 13" fill="none" xmlns="http://www.w3.org/2000/svg">
<g clip-path="url(#clip0_9991_120)">
<path opacity="0.4" d="M15.9076 9.62972L15.2626 9.26952C15.3276 8.92913 15.3276 8.5801 15.2626 8.23971L15.9076 7.87951C15.9436 7.8596 15.9714 7.82832 15.9865 7.79091C16.0015 7.7535 16.0028 7.71224 15.9901 7.67403C15.8239 7.15744 15.5403 6.68334 15.1601 6.28644C15.1321 6.25693 15.0946 6.23751 15.0537 6.23136C15.0128 6.22521 14.971 6.2327 14.9351 6.25259L14.2901 6.61279C14.0176 6.38818 13.705 6.21367 13.3676 6.09788V5.37749C13.3675 5.33748 13.3534 5.29868 13.3275 5.26747C13.3016 5.23627 13.2655 5.21454 13.2251 5.20586C12.6802 5.08739 12.1149 5.08739 11.5701 5.20586C11.5297 5.21454 11.4935 5.23627 11.4676 5.26747C11.4417 5.29868 11.4276 5.33748 11.4276 5.37749V6.09788C11.0902 6.21367 10.7775 6.38818 10.5051 6.61279L9.86006 6.25259C9.82413 6.23278 9.78231 6.22534 9.74144 6.23149C9.70057 6.23764 9.66307 6.25701 9.63506 6.28644C9.25486 6.68334 8.97127 7.15744 8.80506 7.67403C8.79298 7.71227 8.79454 7.75332 8.8095 7.79059C8.82447 7.82786 8.85196 7.85918 8.88756 7.87951L9.53256 8.23971C9.46756 8.5801 9.46756 8.92913 9.53256 9.26952L8.88756 9.62972C8.85153 9.64963 8.82368 9.68091 8.80866 9.71832C8.79364 9.75573 8.79237 9.79699 8.80506 9.8352C8.97185 10.3515 9.25537 10.8255 9.63506 11.2228C9.66302 11.2523 9.70053 11.2717 9.74142 11.2779C9.78232 11.284 9.82416 11.2765 9.86006 11.2566L10.5051 10.8964C10.7775 11.121 11.0902 11.2956 11.4276 11.4113V12.1317C11.4276 12.1717 11.4417 12.2105 11.4676 12.2418C11.4935 12.273 11.5297 12.2947 11.5701 12.3034C12.1149 12.4218 12.6802 12.4218 13.2251 12.3034C13.2655 12.2947 13.3016 12.273 13.3275 12.2418C13.3534 12.2105 13.3675 12.1717 13.3676 12.1317V11.4113C13.705 11.2956 14.0176 11.121 14.2901 10.8964L14.9351 11.2566C14.971 11.2764 15.0128 11.2839 15.0537 11.2777C15.0945 11.2716 15.1321 11.2522 15.1601 11.2228C15.5403 10.8259 15.8239 10.3518 15.9901 9.8352C16.0021 9.79696 16.0006 9.75591 15.9856 9.71864C15.9707 9.68137 15.9432 9.65005 15.9076 9.62972ZM12.4001 9.92706C12.1603 9.92706 11.9258 9.85829 11.7264 9.72946C11.527 9.60063 11.3716 9.41752 11.2799 9.20329C11.1881 8.98905 11.1641 8.75331 11.2109 8.52588C11.2576 8.29845 11.3731 8.08954 11.5427 7.92557C11.7123 7.7616 11.9283 7.64994 12.1635 7.6047C12.3987 7.55946 12.6425 7.58268 12.8641 7.67142C13.0856 7.76016 13.275 7.91043 13.4082 8.10324C13.5415 8.29605 13.6126 8.52273 13.6126 8.75461C13.6122 9.06547 13.4844 9.3635 13.2571 9.5833C13.0297 9.80311 12.7215 9.92674 12.4001 9.92706Z" fill="#213F7D"/>
<path d="M10.63 12.1316V11.9092C10.5725 11.8802 10.515 11.8464 10.46 11.815L10.2625 11.9262C10.0697 12.0343 9.84461 12.0758 9.62421 12.0437C9.40382 12.0117 9.20129 11.908 9.05 11.7497C8.58975 11.2681 8.24641 10.6933 8.045 10.0672C7.97798 9.8613 7.98582 9.63944 8.06723 9.43847C8.14863 9.2375 8.2987 9.06951 8.4925 8.96242L8.69 8.85122C8.6875 8.78837 8.6875 8.72551 8.69 8.66266L8.4925 8.55146C8.29857 8.4445 8.14839 8.27652 8.06696 8.07551C7.98554 7.87449 7.97779 7.65257 8.045 7.4467C8.0675 7.3766 8.1 7.30649 8.125 7.23639C8.03 7.22914 7.9375 7.20738 7.84 7.20738H7.4225C6.85106 7.4622 6.22927 7.59415 5.6 7.59415C4.97073 7.59415 4.34894 7.4622 3.7775 7.20738H3.36C2.46893 7.20757 1.61442 7.54994 0.984341 8.1592C0.354262 8.76847 0.000198832 9.59475 0 10.4564L0 11.462C0 11.7698 0.126428 12.0649 0.351472 12.2825C0.576515 12.5001 0.88174 12.6224 1.2 12.6224H10C10.243 12.6221 10.4801 12.5505 10.68 12.4169C10.6483 12.3249 10.6314 12.2286 10.63 12.1316ZM5.6 6.43381C6.2329 6.43381 6.85159 6.25233 7.37782 5.91233C7.90406 5.57232 8.31421 5.08906 8.55641 4.52366C8.79862 3.95825 8.86199 3.33609 8.73851 2.73586C8.61504 2.13563 8.31027 1.58428 7.86274 1.15154C7.41521 0.718792 6.84503 0.42409 6.22429 0.304696C5.60355 0.185303 4.96014 0.24658 4.37541 0.480779C3.79069 0.714978 3.29092 1.11158 2.9393 1.62043C2.58768 2.12928 2.4 2.72753 2.4 3.33952C2.4 4.16018 2.73714 4.94722 3.33726 5.52751C3.93737 6.1078 4.75131 6.43381 5.6 6.43381Z" fill="#213F7D"/>
</g>
<defs>
<clipPath id="clip0_9991_120">
<rect width="16" height="12.3771" fill="white" transform="translate(0 0.2453)"/>
</clipPath>
</defs>
</svg>
