<svg width="16" height="14" viewBox="0 0 16 14" fill="none" xmlns="http://www.w3.org/2000/svg">
<path opacity="0.4" d="M11.9997 7.04626C12.4744 7.04626 12.9384 6.91015 13.3331 6.65515C13.7278 6.40015 14.0354 6.0377 14.2171 5.61365C14.3987 5.1896 14.4462 4.72298 14.3536 4.27281C14.261 3.82263 14.0324 3.40912 13.6968 3.08457C13.3612 2.76001 12.9335 2.53898 12.468 2.44944C12.0024 2.35989 11.5198 2.40585 11.0813 2.5815C10.6427 2.75715 10.2679 3.0546 10.0042 3.43624C9.74049 3.81788 9.59973 4.26656 9.59973 4.72555C9.59973 5.34104 9.85258 5.93133 10.3027 6.36654C10.7528 6.80176 11.3632 7.04626 11.9997 7.04626ZM13.1997 7.81983H13.1047C12.7572 7.93587 12.3897 8.01322 11.9997 8.01322C11.6097 8.01322 11.2422 7.93587 10.8947 7.81983H10.7997C10.2897 7.81983 9.81973 7.96246 9.40723 8.19211C10.0172 8.82789 10.3997 9.67156 10.3997 10.6047V11.533C10.3997 11.5861 10.3872 11.6369 10.3847 11.6877H14.7997C15.118 11.6877 15.4232 11.5654 15.6483 11.3478C15.8733 11.1302 15.9998 10.8351 15.9998 10.5273C15.9999 10.1717 15.9277 9.81956 15.787 9.49098C15.6464 9.16241 15.4401 8.86386 15.1801 8.61241C14.92 8.36096 14.6113 8.16153 14.2715 8.02554C13.9317 7.88954 13.5675 7.81964 13.1997 7.81983Z" fill="#213F7D"/>
<path d="M4.8 7.04627C5.35379 7.04627 5.89514 6.88748 6.3556 6.58998C6.81605 6.29247 7.17494 5.86962 7.38686 5.37489C7.59879 4.88016 7.65424 4.33578 7.5462 3.81057C7.43816 3.28537 7.17149 2.80294 6.7799 2.42429C6.38831 2.04564 5.8894 1.78778 5.34625 1.68331C4.80311 1.57884 4.24012 1.63246 3.72849 1.83738C3.21685 2.04231 2.77955 2.38933 2.47189 2.83458C2.16422 3.27982 2 3.80329 2 4.33878C1.9998 4.69439 2.07209 5.04654 2.21274 5.37512C2.35338 5.70369 2.55962 6.00224 2.81966 6.25369C3.0797 6.50514 3.38845 6.70457 3.72825 6.84056C4.06805 6.97656 4.43224 7.04646 4.8 7.04627ZM6.72 7.81984H6.5125C5.97911 8.07194 5.39369 8.20416 4.8 8.20663C4.185 8.20663 3.61 8.06158 3.0875 7.81984H2.88C2.11624 7.82003 1.38381 8.1135 0.843752 8.63572C0.30369 9.15794 0.000198819 9.86616 0 10.6047L0 11.3009C0 11.6086 0.126428 11.9038 0.351472 12.1214C0.576515 12.339 0.88174 12.4613 1.2 12.4613H8.4C8.71826 12.4613 9.02349 12.339 9.24853 12.1214C9.47357 11.9038 9.6 11.6086 9.6 11.3009V10.6047C9.5998 9.86616 9.29631 9.15794 8.75625 8.63572C8.21619 8.1135 7.48376 7.82003 6.72 7.81984Z" fill="#213F7D"/>
</svg>
